solid OpenSCAD_Model
  facet normal 1 -0 0
    outer loop
      vertex 20 -20 10
      vertex 20 20 -10
      vertex 20 20 10
    endloop
  endfacet
  facet normal 1 0 0
    outer loop
      vertex 20 20 -10
      vertex 20 -20 10
      vertex 20 -20 -10
    endloop
  endfacet
  facet normal 0 0 1
    outer loop
      vertex 20 20 10
      vertex 19 19 10
      vertex 20 -20 10
    endloop
  endfacet
  facet normal 0 0 1
    outer loop
      vertex 20 20 10
      vertex -19 19 10
      vertex 19 19 10
    endloop
  endfacet
  facet normal 0 0 1
    outer loop
      vertex -19 19 10
      vertex -20 20 10
      vertex -19 -19 10
    endloop
  endfacet
  facet normal -0 0 1
    outer loop
      vertex -20 20 10
      vertex -19 19 10
      vertex 20 20 10
    endloop
  endfacet
  facet normal -0 0 1
    outer loop
      vertex 19 -19 10
      vertex 20 -20 10
      vertex 19 19 10
    endloop
  endfacet
  facet normal -0 0 1
    outer loop
      vertex -19 -19 10
      vertex 20 -20 10
      vertex 19 -19 10
    endloop
  endfacet
  facet normal 0 0 1
    outer loop
      vertex -19 -19 10
      vertex -20 -20 10
      vertex 20 -20 10
    endloop
  endfacet
  facet normal 0 0 1
    outer loop
      vertex -20 -20 10
      vertex -19 -19 10
      vertex -20 20 10
    endloop
  endfacet
  facet normal 0 0 -1
    outer loop
      vertex -20 -20 -10
      vertex 20 20 -10
      vertex 20 -20 -10
    endloop
  endfacet
  facet normal -0 0 -1
    outer loop
      vertex 20 20 -10
      vertex -20 -20 -10
      vertex -20 20 -10
    endloop
  endfacet
  facet normal -1 0 0
    outer loop
      vertex -20 -20 -10
      vertex -20 20 10
      vertex -20 20 -10
    endloop
  endfacet
  facet normal -1 -0 0
    outer loop
      vertex -20 20 10
      vertex -20 -20 -10
      vertex -20 -20 10
    endloop
  endfacet
  facet normal 0 1 -0
    outer loop
      vertex 20 20 -10
      vertex -20 20 10
      vertex 20 20 10
    endloop
  endfacet
  facet normal 0 1 0
    outer loop
      vertex -20 20 10
      vertex 20 20 -10
      vertex -20 20 -10
    endloop
  endfacet
  facet normal 0 -1 0
    outer loop
      vertex -20 -20 -10
      vertex 20 -20 10
      vertex -20 -20 10
    endloop
  endfacet
  facet normal 0 -1 -0
    outer loop
      vertex 20 -20 10
      vertex -20 -20 -10
      vertex 20 -20 -10
    endloop
  endfacet
  facet normal -1 0 0
    outer loop
      vertex 19 -19 -8
      vertex 19 19 10
      vertex 19 19 -8
    endloop
  endfacet
  facet normal -1 -0 0
    outer loop
      vertex 19 19 10
      vertex 19 -19 -8
      vertex 19 -19 10
    endloop
  endfacet
  facet normal -0 0 1
    outer loop
      vertex -19 19 -8
      vertex 19 -19 -8
      vertex 19 19 -8
    endloop
  endfacet
  facet normal 0 0 1
    outer loop
      vertex 19 -19 -8
      vertex -19 19 -8
      vertex -19 -19 -8
    endloop
  endfacet
  facet normal 1 -0 0
    outer loop
      vertex -19 -19 10
      vertex -19 19 -8
      vertex -19 19 10
    endloop
  endfacet
  facet normal 1 0 0
    outer loop
      vertex -19 19 -8
      vertex -19 -19 10
      vertex -19 -19 -8
    endloop
  endfacet
  facet normal 0 -1 0
    outer loop
      vertex -19 19 -8
      vertex 19 19 10
      vertex -19 19 10
    endloop
  endfacet
  facet normal 0 -1 -0
    outer loop
      vertex 19 19 10
      vertex -19 19 -8
      vertex 19 19 -8
    endloop
  endfacet
  facet normal 0 1 -0
    outer loop
      vertex 19 -19 -8
      vertex -19 -19 10
      vertex 19 -19 10
    endloop
  endfacet
  facet normal 0 1 0
    outer loop
      vertex -19 -19 10
      vertex 19 -19 -8
      vertex -19 -19 -8
    endloop
  endfacet
endsolid OpenSCAD_Model
